<svg xmlns="http://www.w3.org/2000/svg" viewBox="0 0 166.26273 83.53119"><line x1="0.5" x2="0.5" y2="83.53119" style="fill:none;stroke:#fff;stroke-miterlimit:10"/><path d="M121.05239,56.86625V31.826H129.209V35.5401h-4.184v6.57812h2.77656v3.52813h-2.77656v7.3031h4.74365a80.08535,80.08535,0,0,0,.85879-12.10056c0-12.852-2.46836-22.802-7.33672-29.57344C118.29507,4.3274,110.82905.80436,101.10132.80436c-9.634,0-17.07656,3.60039-22.1211,10.70078-4.91367,6.91718-7.40507,16.78984-7.40507,29.34375,0,1.14638.02714,2.26142.067,3.36172H66.62358V.80436H48.01187L11.00405,47.97l.518.98789a85.52185,85.52185,0,0,1,3.95391,9.65977l.41054,1.14062H46.08882V64.802H37.10171V80.00436H73.53726V64.802H66.62358V59.75826h7.32461a34.74988,34.74988,0,0,0,5.09336,10.72188c5.07617,6.975,12.49844,10.51172,22.05977,10.51172,9.52617,0,16.93945-3.53594,22.034-10.50938a35.94918,35.94918,0,0,0,5.91143-13.61623ZM46.08882,44.21061H34.21655L46.08882,29.37037Zm72.621-12.28614-3.55117,14.79922V56.86625H111.1852V46.71432l-2.77138-11.914c.09492,1.83379.148,3.8378.148,6.04854,0,8.38906-.69844,14.64414-2.07657,18.591-1.58633,4.541-3.77617,5.066-5.28515,5.066-.87188,0-3.52539,0-5.33907-5.07735C94.45327,55.486,93.7396,49.23482,93.7396,40.84889c0-8.25938.71523-14.498,2.12578-18.54258,1.81914-5.21367,4.46524-5.21367,5.33477-5.21367,2.76406,0,5.96269,2.80039,7.00918,14.7334h3.6415l.01133.0664L113.445,41.1065l1.4168-9.28046h3.87187Z" style="fill:#fff"/><path d="M138.54232,56.56144,138.32,52.34156h-2.25845l-.36987,4.21988h-3.44278L135.173,31.906h4.33133l2.92471,24.65547Zm-1.18495-17.95486-.9253,10.2181h1.59157Z" style="fill:#fff"/><path d="M151.36547,56.56144c-.59217,0-.9253-2.406-.9253-3.81265V47.3807c0-.59217-.29639-1.11085-.81446-1.11085h-.92592V56.56144h-3.81265V31.906h5.1458c1.888,0,3.9982,1.11085,3.9982,4.33194v5.62651a3.33038,3.33038,0,0,1-1.62892,2.77651A3.40878,3.40878,0,0,1,154.142,47.4548v4.9976a17.92264,17.92264,0,0,0,.48133,3.9982v.11084Zm-1.03676-20.13859c0-.74036-.22168-1.03614-.66626-1.03614h-.96266V43.012h.96266c.44458,0,.66626-.25842.66626-1.03614Z" style="fill:#fff"/><path d="M161.52417,56.93193c-2.96145,0-4.77592-1.85122-4.77592-5.1458V49.19456h3.33194v2.888c0,.88795.40723,1.48073,1.259,1.48073.81446,0,1.22169-.55543,1.22169-1.48073,0-2.2217-.88856-3.96146-2.33254-6.44158-1.444-2.29579-3.406-5.70122-3.406-8.55182,0-3.07291,1.59217-5.553,4.92411-5.553,2.591,0,4.33133,1.88857,4.33133,5.1458V39.3843H162.7826V36.3114c0-.81446-.444-1.25843-1.03614-1.25843a1.12066,1.12066,0,0,0-1.14759,1.25843c0,2.85122.8512,3.85062,2.406,6.59039,1.62892,2.77651,3.25784,5.7006,3.25784,8.588C166.26273,55.34036,163.93019,56.93193,161.52417,56.93193Z" style="fill:#fff"/></svg>