<svg xmlns="http://www.w3.org/2000/svg" viewBox="0 0 391.49544 83.53119"><line x1="225.73271" x2="225.73271" y2="83.53119" style="fill:none;stroke:#fff;stroke-miterlimit:10"/><path d="M346.2851,56.86625V31.826h8.15664V35.5401h-4.184v6.57812h2.77656v3.52813h-2.77656v7.3031h4.74365a80.08535,80.08535,0,0,0,.85879-12.10056c0-12.852-2.46836-22.802-7.33672-29.57344C343.52777,4.3274,336.06176.80436,326.334.80436c-9.634,0-17.07656,3.60039-22.12109,10.70078-4.91367,6.91718-7.40508,16.78984-7.40508,29.34375,0,1.14638.02715,2.26142.067,3.36172h-5.01855V.80436H273.24457L236.23676,47.97l.518.98789a85.52418,85.52418,0,0,1,3.9539,9.65977l.41055,1.14062h30.20234V64.802h-8.9871V80.00436H298.77V64.802h-6.91367V59.75826h7.32461a34.74988,34.74988,0,0,0,5.09336,10.72188c5.07617,6.975,12.49844,10.51172,22.05976,10.51172,9.52618,0,16.93946-3.53594,22.034-10.50938a35.94917,35.94917,0,0,0,5.91142-13.61623ZM271.32152,44.21061H259.44926l11.87226-14.84024Zm72.621-12.28614-3.55117,14.79922V56.86625h-3.97344V46.71432l-2.77139-11.914c.09493,1.83379.14805,3.8378.14805,6.04854,0,8.38906-.69844,14.64414-2.07656,18.591-1.58633,4.541-3.77617,5.066-5.28516,5.066-.87187,0-3.52539,0-5.33906-5.07735-1.40781-3.94257-2.12148-10.19375-2.12148-18.57968,0-8.25938.71523-14.498,2.12578-18.54258,1.81914-5.21367,4.46523-5.21367,5.33476-5.21367,2.76407,0,5.9627,2.80039,7.00918,14.7334h3.64151l.01132.0664,1.58282,9.21406,1.41679-9.28046h3.87188Z" style="fill:#fff"/><path d="M363.775,56.56144l-.22229-4.21988h-2.25844l-.36987,4.21988h-3.44278L360.40573,31.906h4.33134l2.9247,24.65547Zm-1.18494-17.95486-.9253,10.2181h1.59156Z" style="fill:#fff"/><path d="M376.59817,56.56144c-.59216,0-.9253-2.406-.9253-3.81265V47.3807c0-.59217-.29639-1.11085-.81446-1.11085h-.92591V56.56144h-3.81265V31.906h5.14579c1.888,0,3.9982,1.11085,3.9982,4.33194v5.62651a3.33038,3.33038,0,0,1-1.62892,2.77651,3.40878,3.40878,0,0,1,1.73976,2.81387v4.9976a17.92322,17.92322,0,0,0,.48133,3.9982v.11084Zm-1.03675-20.13859c0-.74036-.22168-1.03614-.66626-1.03614h-.96266V43.012h.96266c.44458,0,.66626-.25842.66626-1.03614Z" style="fill:#fff"/><path d="M386.75687,56.93193c-2.96145,0-4.77591-1.85122-4.77591-5.1458V49.19456h3.33193v2.888c0,.88795.40723,1.48073,1.25905,1.48073.81446,0,1.22169-.55543,1.22169-1.48073,0-2.2217-.88856-3.96146-2.33254-6.44158-1.444-2.29579-3.406-5.70122-3.406-8.55182,0-3.07291,1.59218-5.553,4.92412-5.553,2.591,0,4.33133,1.88857,4.33133,5.1458V39.3843h-3.29519V36.3114c0-.81446-.444-1.25843-1.03614-1.25843a1.12067,1.12067,0,0,0-1.1476,1.25843c0,2.85122.85121,3.85062,2.406,6.59039,1.62892,2.77651,3.25784,5.7006,3.25784,8.588C391.49544,55.34036,389.1629,56.93193,386.75687,56.93193Z" style="fill:#fff"/><polygon points="16.324 33.411 0.004 45.063 0 54.633 26.902 79.882 43.341 66.941 43.341 57.67 27.281 70.294 4.984 49.35 16.325 40.368 16.324 33.411" style="fill:#fff"/><polygon points="26.95 61.888 43.342 49.812 43.342 40.383 16.448 15.133 0.009 28.075 0.009 37.345 16.069 24.721 38.359 45.665 26.95 54.235 26.95 61.888" style="fill:#fff"/><path d="M62.81781,39.42279h3.44655a.27675.27675,0,0,0,.26754-.20579l2.78937-10.50072q.01341-.04863.026-.09808.01236.04819.02557.0957L72.16275,39.217a.27674.27674,0,0,0,.26754.20579h3.44585a.277.277,0,0,0,.26879-.21054L79.63311,25.098h1.30737a.27683.27683,0,0,0,.2769-.2769V22.50061a.27683.27683,0,0,0-.2769-.2769H74.44624a.27683.27683,0,0,0-.27689.2769v2.32052a.27683.27683,0,0,0,.27689.2769h1.59922L73.9658,34.253l-.0021-.00741L70.84546,22.42992a.27672.27672,0,0,0-.26768-.20621H68.11616a.27672.27672,0,0,0-.26767.20621L64.73094,34.24277l-.00237.00866L62.64918,25.098H64.2477a.27683.27683,0,0,0,.2769-.2769V22.50061a.27683.27683,0,0,0-.2769-.2769H57.75416a.27683.27683,0,0,0-.2769.2769v2.32052a.27683.27683,0,0,0,.2769.2769h1.30667L62.549,39.21225A.277.277,0,0,0,62.81781,39.42279Z" style="fill:#fff"/><rect x="81.60311" y="35.86811" width="3.53163" height="3.55468" rx="0.2769" style="fill:#fff"/><path d="M94.51782,39.7043c4.63433,0,6.27867-2.82681,6.27867-5.24764,0-3.40673-2.85783-4.43092-5.14957-5.25211L95.497,29.148c-1.83085-.69169-2.953-1.17786-2.953-2.40448,0-1.43926,1.68989-1.55116,2.20778-1.55116,1.08565,0,2.20847.37846,2.20847,1.01189v1.126a.27683.27683,0,0,0,.2769.2769h2.78993a.27683.27683,0,0,0,.2769-.2769V25.14944c0-2.10551-2.79315-3.20723-5.5522-3.20723-2.83129,0-5.85676,1.29214-5.85676,4.91863,0,3.09435,2.16949,4.17274,4.58389,5.08754.18833.07348.37637.145.56246.2157,1.6544.62868,3.083,1.17158,3.083,2.50423,0,1.31673-1.34649,1.78587-2.60664,1.78587-1.319,0-2.65414-.49275-2.65414-1.43451V33.777a.27683.27683,0,0,0-.27689-.2769H88.79685a.27683.27683,0,0,0-.27689.2769v1.8993C88.52,38.32065,91.53733,39.7043,94.51782,39.7043Z" style="fill:#fff"/><rect x="104.15866" y="35.86811" width="3.53093" height="3.55468" rx="0.2769" style="fill:#fff"/><path d="M126.96665,39.7043a13.06254,13.06254,0,0,0,4.25266-.72689c1.70888-.64069,2.61208-1.62017,2.61208-2.8324V33.87059a.27683.27683,0,0,0-.2769-.2769h-2.78993a.27683.27683,0,0,0-.27689.2769v1.28949c0,1.021-2.28895,1.36465-3.33311,1.36465-3.20542,0-5.44407-2.43145-5.44407-5.91278,0-3.28379,2.12186-5.49017,5.27991-5.49017,1.36465,0,3.28631.43057,3.28631,1.3877V27.799a.27683.27683,0,0,0,.2769.27689h2.78993a.27683.27683,0,0,0,.2769-.27689V25.5483c0-2.95828-4.88776-3.60609-6.77114-3.60609a8.6405,8.6405,0,0,0-8.85764,8.81084A8.76648,8.76648,0,0,0,126.96665,39.7043Z" style="fill:#fff"/><path d="M136.62733,25.098h1.716v7.78833a6.80275,6.80275,0,0,0,1.30108,4.3668,7.94474,7.94474,0,0,0,11.50717-.03,7.4676,7.4676,0,0,0,1.27329-4.33676V25.098h1.71531a.27683.27683,0,0,0,.27689-.2769V22.50061a.27683.27683,0,0,0-.27689-.2769h-7.05656a.27683.27683,0,0,0-.2769.2769v2.32052a.27683.27683,0,0,0,.2769.2769h1.716v7.76458a4.26938,4.26938,0,0,1-.52166,2.22245,3.20952,3.20952,0,0,1-2.882,1.36912,3.28975,3.28975,0,0,1-2.90449-1.34216,4.479,4.479,0,0,1-.52292-2.22566V25.098h1.73906a.27683.27683,0,0,0,.2769-.2769V22.50061a.27683.27683,0,0,0-.2769-.2769h-7.0803a.27683.27683,0,0,0-.2769.2769v2.32052A.27683.27683,0,0,0,136.62733,25.098Z" style="fill:#fff"/><path d="M156.93151,39.42279h6.8456a.27683.27683,0,0,0,.2769-.2769V36.84843a.27683.27683,0,0,0-.2769-.2769h-1.57784l.56749-7.81041,3.07591,7.3966a.27683.27683,0,0,0,.25566.17058h2.62578a.277.277,0,0,0,.25566-.17058l3.07605-7.39562.56734,7.80943h-1.55479a.27683.27683,0,0,0-.27689.2769v2.29746a.27683.27683,0,0,0,.27689.2769h6.82255a.27683.27683,0,0,0,.2769-.2769V36.84843a.27683.27683,0,0,0-.2769-.2769h-1.71349l-.9169-11.4735h1.693a.27683.27683,0,0,0,.2769-.2769V22.50061a.27683.27683,0,0,0-.2769-.2769h-5.4157a.27678.27678,0,0,0-.25776.17589L167.597,31.80518c-.06944.18706-.12937.36072-.1805.518-.04848-.15843-.10492-.3339-.16989-.5232l-3.7036-9.40082a.27684.27684,0,0,0-.25762-.17548h-5.41571a.27683.27683,0,0,0-.2769.2769v2.32052a.27683.27683,0,0,0,.2769.2769h1.71545l-.93952,11.4735h-1.71406a.27683.27683,0,0,0-.27689.2769v2.29746A.27683.27683,0,0,0,156.93151,39.42279Z" style="fill:#fff"/><path d="M181.12791,39.42279h8.01857a8.91844,8.91844,0,0,0,2.56389-.2931A4.93832,4.93832,0,0,0,195.2142,34.34a4.15762,4.15762,0,0,0-2.39261-4.01794,4.46115,4.46115,0,0,0-.96928-7.63312,7.8002,7.8002,0,0,0-3.08108-.46523h-7.64332a.27683.27683,0,0,0-.2769.2769v2.32052a.27683.27683,0,0,0,.2769.2769h1.71615v11.4735h-1.71615a.27683.27683,0,0,0-.2769.2769v2.29746A.27683.27683,0,0,0,181.12791,39.42279Zm7.99482-10.40028h-2.65358V25.23913h2.30208a2.96033,2.96033,0,0,1,1.29927.22493,1.77419,1.77419,0,0,1,.815,1.65454A1.68788,1.68788,0,0,1,189.12273,29.02251Zm1.2568,7.2168a3.12274,3.12274,0,0,1-1.09278.16807h-2.8176v-4.3932h2.93495a1.98365,1.98365,0,0,1,2.13806,2.13792A2.17642,2.17642,0,0,1,190.37953,36.23931Z" style="fill:#fff"/><path d="M212.31115,22.22371h-6.14232a.27692.27692,0,0,0-.2769.2769v2.32052a.27692.27692,0,0,0,.2769.2769H207.282l-2.29006,3.9439c-.05477.0936-.10478.18441-.14921.26935-.04275-.0848-.09137-.17533-.14585-.26823l-2.29062-3.945h1.13692a.27692.27692,0,0,0,.2769-.2769V22.50061a.27692.27692,0,0,0-.2769-.2769h-6.18981a.27692.27692,0,0,0-.2769.2769v2.32052a.27692.27692,0,0,0,.2769.2769h1.36772l4.31049,7.16175v4.31175h-1.73906a.27692.27692,0,0,0-.2769.2769v2.29746a.27692.27692,0,0,0,.2769.2769h7.0803a.27692.27692,0,0,0,.2769-.2769V36.84843a.27692.27692,0,0,0-.2769-.2769h-1.71615V32.25978l4.3105-7.16175h1.344a.27692.27692,0,0,0,.2769-.2769V22.50061A.27692.27692,0,0,0,212.31115,22.22371Z" style="fill:#fff"/><path d="M66.08489,61.85234a6.2254,6.2254,0,0,0,5.2767-2.74732L69.2143,57.61366a3.77473,3.77473,0,0,1-3.12941,1.72816,3.93331,3.93331,0,0,1,0-7.8417,3.67492,3.67492,0,0,1,3.05677,1.63736l2.16544-1.49206a6.35165,6.35165,0,0,0-11.51737,3.78463A6.30229,6.30229,0,0,0,66.08489,61.85234Z" style="fill:#fff"/><path d="M80.12884,48.9889a6.432,6.432,0,1,0,6.36781,6.44115A6.36428,6.36428,0,0,0,80.12884,48.9889Zm0,10.22579a3.79462,3.79462,0,1,1,3.712-3.78464A3.71667,3.71667,0,0,1,80.12884,59.21469Z" style="fill:#fff"/><polygon points="92.426 49.135 89.988 49.135 89.988 61.671 92.644 61.671 92.644 54.083 97.011 61.671 99.394 61.671 99.394 49.135 96.72 49.135 96.72 56.631 92.426 49.135" style="fill:#fff"/><path d="M107.48888,59.50528a1.66392,1.66392,0,0,1-1.87415-1.50952h-2.67468c0,2.25555,1.81967,3.87544,4.54883,3.87544,2.21993,0,4.47619-1.18331,4.51251-3.67566.03632-1.20078-.40026-2.91078-3.43887-3.78464l-1.49206-.47291c-1.21893-.34577-1.34676-.94581-1.34676-1.27342,0-.746.69154-1.25526,1.61989-1.25526,1.05478,0,1.61919.58188,1.61919,1.41872h2.65651c0-2.40155-1.81967-3.83913-4.23938-3.83913-2.40155,0-4.312,1.51023-4.312,3.74832,0,1.12813.47291,2.74732,3.23839,3.60232l1.51022.41842c1.27342.36393,1.52839.8557,1.51023,1.41941C109.30855,58.99605,108.56252,59.50528,107.48888,59.50528Z" style="fill:#fff"/><polygon points="117.785 61.671 120.478 61.671 120.478 51.536 123.862 51.536 123.862 49.135 114.401 49.135 114.401 51.536 117.785 51.536 117.785 61.671" style="fill:#fff"/><path d="M127.11689,49.1349V61.67072h2.67467V57.34053h.6l2.80251,4.33019h3.20206l-3.11126-4.43916a3.87764,3.87764,0,0,0,3.12942-3.98511,3.94,3.94,0,0,0-4.16673-4.11155Zm6.5138,4.11155a1.66784,1.66784,0,0,1-1.58287,1.76518h-2.25626V51.482h2.3289A1.65433,1.65433,0,0,1,133.63069,53.24645Z" style="fill:#fff"/><path d="M139.8511,49.1349v8.05964a4.86223,4.86223,0,0,0,9.71586,0V49.1349h-2.67467v8.05964a2.16517,2.16517,0,0,1-4.33019,0V49.1349Z" style="fill:#fff"/><path d="M159.22554,61.85234a6.22538,6.22538,0,0,0,5.2767-2.74732L162.355,57.61366a3.77477,3.77477,0,0,1-3.12942,1.72816,3.93331,3.93331,0,0,1,0-7.8417,3.6749,3.6749,0,0,1,3.05677,1.63736l2.16544-1.49206a6.35165,6.35165,0,0,0-11.51737,3.78463A6.30229,6.30229,0,0,0,159.22554,61.85234Z" style="fill:#fff"/><polygon points="172.76 61.671 172.76 51.536 176.144 51.536 176.144 49.135 166.683 49.135 166.683 51.536 170.067 51.536 170.067 61.671 172.76 61.671" style="fill:#fff"/><rect x="179.3991" y="49.1349" width="2.65651" height="12.53583" style="fill:#fff"/><path d="M185.54756,55.43005a6.3596,6.3596,0,1,0,6.35035-6.44115A6.37113,6.37113,0,0,0,185.54756,55.43005Zm10.06164,0a3.70388,3.70388,0,1,1-3.71129-3.8028A3.73182,3.73182,0,0,1,195.6092,55.43005Z" style="fill:#fff"/><polygon points="208.78 61.671 211.163 61.671 211.163 49.135 208.489 49.135 208.489 56.631 204.195 49.135 201.757 49.135 201.757 61.671 204.413 61.671 204.413 54.083 208.78 61.671" style="fill:#fff"/></svg>