<?xml version="1.0" encoding="utf-8"?>
<!-- Generator: Adobe Illustrator 26.0.2, SVG Export Plug-In . SVG Version: 6.00 Build 0)  -->
<svg version="1.1" xmlns="http://www.w3.org/2000/svg" xmlns:xlink="http://www.w3.org/1999/xlink" x="0px" y="0px"
	 viewBox="0 0 166.3 83.5" style="enable-background:new 0 0 166.3 83.5;" xml:space="preserve">
<style type="text/css">
	.st0{fill:none;stroke:#29412C;stroke-miterlimit:10;}
	.st1{fill:url(#SVGID_1_);}
	.st2{fill:url(#SVGID_00000075159191630436062060000014196271218877919662_);}
	.st3{fill:url(#SVGID_00000016779337271169591850000007455887832633966996_);}
	.st4{fill:url(#SVGID_00000183943419766503923710000004706756827612721800_);}
</style>
<g id="Layer_1">
	<line class="st0" x1="0.5" y1="0" x2="0.5" y2="83.5"/>
	<linearGradient id="SVGID_1_" gradientUnits="userSpaceOnUse" x1="70.8162" y1="80.9919" x2="70.8162" y2="0.8044">
		<stop  offset="0" style="stop-color:#A77109"/>
		<stop  offset="0.4311" style="stop-color:#DDB943"/>
		<stop  offset="0.4639" style="stop-color:#E2BB3B"/>
		<stop  offset="0.5786" style="stop-color:#EEC223"/>
		<stop  offset="0.7007" style="stop-color:#F8C612"/>
		<stop  offset="0.8341" style="stop-color:#FDC908"/>
		<stop  offset="1" style="stop-color:#FFCA05"/>
	</linearGradient>
	<path class="st1" d="M121.1,56.9v-25h8.2v3.7H125v6.6h2.8v3.5H125v7.3h4.7c0.6-4,0.9-8.1,0.9-12.1c0-12.9-2.5-22.8-7.3-29.6
		c-5-6.9-12.5-10.5-22.2-10.5C91.5,0.8,84,4.4,79,11.5c-4.9,6.9-7.4,16.8-7.4,29.3c0,1.1,0,2.3,0.1,3.4h-5V0.8H48L11,48l0.5,1
		c1.5,3.1,2.8,6.4,4,9.7l0.4,1.1h30.2v5h-9V80h36.4V64.8h-6.9v-5h7.3c1.1,3.8,2.8,7.5,5.1,10.7c5.1,7,12.5,10.5,22.1,10.5
		c9.5,0,16.9-3.5,22-10.5c2.9-4.1,4.9-8.7,5.9-13.6L121.1,56.9z M46.1,44.2H34.2l11.9-14.8V44.2z M118.7,31.9l-3.6,14.8v10.1h-4
		V46.7l-2.8-11.9c0.1,1.8,0.1,3.8,0.1,6c0,8.4-0.7,14.6-2.1,18.6c-1.6,4.5-3.8,5.1-5.3,5.1c-0.9,0-3.5,0-5.3-5.1
		c-1.4-3.9-2.1-10.2-2.1-18.6c0-8.3,0.7-14.5,2.1-18.5c1.8-5.2,4.5-5.2,5.3-5.2c2.8,0,6,2.8,7,14.7h3.6l0,0.1l1.6,9.2l1.4-9.3
		L118.7,31.9L118.7,31.9z"/>
	<g>
		
			<linearGradient id="SVGID_00000038370711713638030940000003835100563106337441_" gradientUnits="userSpaceOnUse" x1="137.339" y1="56.5615" x2="137.339" y2="31.906">
			<stop  offset="0" style="stop-color:#BC8B0C"/>
			<stop  offset="0.4311" style="stop-color:#DDB943"/>
			<stop  offset="0.4639" style="stop-color:#E2BB3B"/>
			<stop  offset="0.5786" style="stop-color:#EEC223"/>
			<stop  offset="0.7007" style="stop-color:#F8C612"/>
			<stop  offset="0.8341" style="stop-color:#FDC908"/>
			<stop  offset="1" style="stop-color:#FFCA05"/>
		</linearGradient>
		<path style="fill:url(#SVGID_00000038370711713638030940000003835100563106337441_);" d="M138.5,56.6l-0.2-4.2h-2.3l-0.4,4.2h-3.4
			l2.9-24.7h4.3l2.9,24.7L138.5,56.6z M137.4,38.6l-0.9,10.2h1.6L137.4,38.6z"/>
		
			<linearGradient id="SVGID_00000044170596737160840990000014439047737393159313_" gradientUnits="userSpaceOnUse" x1="149.7552" y1="56.5614" x2="149.7552" y2="31.906">
			<stop  offset="0" style="stop-color:#BC8B0C"/>
			<stop  offset="0.4311" style="stop-color:#DDB943"/>
			<stop  offset="0.4639" style="stop-color:#E2BB3B"/>
			<stop  offset="0.5786" style="stop-color:#EEC223"/>
			<stop  offset="0.7007" style="stop-color:#F8C612"/>
			<stop  offset="0.8341" style="stop-color:#FDC908"/>
			<stop  offset="1" style="stop-color:#FFCA05"/>
		</linearGradient>
		<path style="fill:url(#SVGID_00000044170596737160840990000014439047737393159313_);" d="M151.4,56.6c-0.6,0-0.9-2.4-0.9-3.8v-5.4
			c0-0.6-0.3-1.1-0.8-1.1h-0.9v10.3h-3.8V31.9h5.1c1.9,0,4,1.1,4,4.3v5.6c0,1.1-0.6,2.2-1.6,2.8c1,0.6,1.7,1.6,1.7,2.8v5
			c0,1.3,0.2,2.7,0.5,4v0.1H151.4z M150.3,36.4c0-0.7-0.2-1-0.7-1h-1V43h1c0.4,0,0.7-0.3,0.7-1V36.4z"/>
		
			<linearGradient id="SVGID_00000128474234402795120990000009712618046867027338_" gradientUnits="userSpaceOnUse" x1="161.5055" y1="56.9319" x2="161.5055" y2="31.5362">
			<stop  offset="0" style="stop-color:#BC8B0C"/>
			<stop  offset="0.4311" style="stop-color:#DDB943"/>
			<stop  offset="0.4639" style="stop-color:#E2BB3B"/>
			<stop  offset="0.5786" style="stop-color:#EEC223"/>
			<stop  offset="0.7007" style="stop-color:#F8C612"/>
			<stop  offset="0.8341" style="stop-color:#FDC908"/>
			<stop  offset="1" style="stop-color:#FFCA05"/>
		</linearGradient>
		<path style="fill:url(#SVGID_00000128474234402795120990000009712618046867027338_);" d="M161.5,56.9c-3,0-4.8-1.9-4.8-5.1v-2.6
			h3.3v2.9c0,0.9,0.4,1.5,1.3,1.5c0.8,0,1.2-0.6,1.2-1.5c0-2.2-0.9-4-2.3-6.4c-1.4-2.3-3.4-5.7-3.4-8.6c0-3.1,1.6-5.6,4.9-5.6
			c2.6,0,4.3,1.9,4.3,5.1v2.7h-3.3v-3.1c0-0.8-0.4-1.3-1-1.3c-0.6,0-1.1,0.5-1.2,1.1c0,0.1,0,0.1,0,0.2c0,2.9,0.9,3.9,2.4,6.6
			c1.6,2.8,3.3,5.7,3.3,8.6C166.3,55.3,163.9,56.9,161.5,56.9z"/>
	</g>
</g>
<g id="Layer_2">
</g>
</svg>
